<svg width="27" height="31" viewBox="0 0 27 31" fill="none" xmlns="http://www.w3.org/2000/svg">
<path d="M9.28125 4.5H17.7188V2.15625C17.7188 1.39453 18.3047 0.75 19.125 0.75C19.8867 0.75 20.5312 1.39453 20.5312 2.15625V4.5H22.875C24.9258 4.5 26.625 6.19922 26.625 8.25V27C26.625 29.1094 24.9258 30.75 22.875 30.75H4.125C2.01562 30.75 0.375 29.1094 0.375 27V8.25C0.375 6.19922 2.01562 4.5 4.125 4.5H6.46875V2.15625C6.46875 1.39453 7.05469 0.75 7.875 0.75C8.63672 0.75 9.28125 1.39453 9.28125 2.15625V4.5ZM3.1875 27C3.1875 27.5273 3.59766 27.9375 4.125 27.9375H22.875C23.3438 27.9375 23.8125 27.5273 23.8125 27V12H3.1875V27Z" fill="black"/>
</svg>
