<svg width="417" height="428" viewBox="0 0 417 428" fill="none" xmlns="http://www.w3.org/2000/svg">
<g clip-path="url(#clip0_292_2)">
<path d="M230.554 407.326C120.314 407.326 30.939 322.481 30.939 217.833C30.939 113.185 120.314 28.3204 230.554 28.3204C319.349 28.3204 399.229 90.0136 416.981 185.815C410.155 64.9453 313.006 0 213.769 0C95.6983 0 0 95.8015 0 214C0 332.198 95.6983 428 213.769 428C296.725 428 375.619 398.383 411.663 278.461C379.332 358.196 304.885 407.326 230.573 407.326H230.554Z" fill="#64CCE8"/>
<path d="M237.09 248.012C237.09 248.012 248.247 232.564 243.587 185.563C242.33 172.768 234.924 152.113 228.349 141.079C217.231 122.477 188.399 100.738 142.861 117.114C142.861 117.114 123.911 125.303 124.317 109.7C124.704 94.0787 165.62 98.6278 172.717 91.8526C179.814 85.0774 170.551 80.6831 161.366 82.193C152.181 83.7029 145.819 74.5274 147.366 71.0817C148.778 67.9457 156.319 53.079 195.786 78.0118C202.283 82.1156 208.316 86.9551 213.885 92.3365C217.637 95.9758 222.336 99.7892 224.366 98.5116C228.04 96.2274 210.037 86.355 214.543 81.0703C219.048 75.7856 237.747 89.4909 249.775 149.597C250.219 151.765 250.78 153.914 251.457 156.024C253.429 162.141 257.219 171.587 258.167 157.669C259.462 138.582 248.595 124.877 250.239 119.592C251.882 114.308 280.965 131.942 273.172 176.717C264.664 225.653 237.09 248.031 237.09 248.031V248.012Z" fill="#3DA5C9"/>
<path d="M202.515 227.88C209.051 228.267 216.051 230.59 221.369 234.403C232.178 242.185 237.09 248.012 237.09 248.012C237.09 248.012 209.728 178.033 171.712 178.033C148.623 178.033 140.637 209.141 181.341 208.735C194.916 208.599 198.01 209.993 201.8 212.568C204.662 214.503 208.703 218.51 201.374 218.685C189.444 218.975 184.745 226.815 202.496 227.86L202.515 227.88Z" fill="#3DA5C9"/>
<path opacity="0.5" d="M46.4279 257.671L60.7952 286.456C60.7952 286.456 78.5465 285.43 124.298 319.248C164.17 348.73 198.88 341.219 198.88 341.219C198.88 341.219 169.411 365.804 110.162 320.042C110.162 320.042 81.9304 297.761 66.1902 299.077C66.1902 299.077 121.126 394.55 213.325 392.846C305.523 391.143 389.542 316.693 397.083 271.86C397.083 271.86 384.379 257.652 321.998 302.407C277.136 334.599 221.755 332.16 167.632 311.428C111.303 289.844 92.8171 266.227 46.4473 257.652L46.4279 257.671Z" fill="#83C9E2"/>
<path d="M42.1931 242.514C42.1931 242.514 76.8448 240.346 151.64 289.592C151.64 289.592 212.338 322.887 269.75 307.246C269.75 307.246 209.38 302.833 152.297 261.736C95.2149 220.64 42.1931 242.514 42.1931 242.514Z" fill="#83C9E2"/>
<path d="M121.958 234.403C121.958 234.403 200.195 291.47 269.75 297.587C320.973 302.097 332.556 275.287 367.517 265.995C389.232 260.226 393.873 261.407 397.083 262.936C400.293 264.466 393.912 238.972 350.307 245.456C306.702 251.941 307.283 264.059 267.391 268.299C226.783 272.635 177.899 262.433 121.977 234.403H121.958Z" fill="#83C9E2"/>
</g>
<defs>
<clipPath id="clip0_292_2">
<rect width="417" height="428" fill="white"/>
</clipPath>
</defs>
</svg>
