<svg width="24" height="40" viewBox="0 0 24 40" fill="none" xmlns="http://www.w3.org/2000/svg">
<path d="M13 8.41834C13 3.76797 10.0902 0 6.50149 0C2.91281 0 0 3.76797 0 8.41834C0 12.1616 1.88705 15.3322 4.49482 16.4256L3.75615 37.2029C3.75615 37.2029 4.46791 39.8638 6.29515 39.9953C8.12238 40.1296 9.34253 37.3344 9.24085 36.9371C9.18104 36.6959 8.63975 25.4441 8.21808 16.538C10.9754 15.5624 13 12.2987 13 8.41834Z" fill="black"/>
<path d="M18.0239 40.0002C17.2628 40.0002 16.6478 39.3885 16.6478 38.6314V1.3964C16.6478 0.639302 17.2628 0.0275879 18.0239 0.0275879C18.7851 0.0275879 19.4 0.639302 19.4 1.3964V38.6314C19.4 39.3885 18.7851 40.0002 18.0239 40.0002Z" fill="black"/>
<path d="M22.3385 39.9726C21.5774 39.9726 20.9624 39.3609 20.9624 38.6038V1.36881C20.9624 0.611714 21.5774 0 22.3385 0C23.0996 0 23.7146 0.611714 23.7146 1.36881V38.6038C23.7146 39.3609 23.0996 39.9726 22.3385 39.9726Z" fill="black"/>
</svg>
