<svg width="703" height="62" viewBox="0 0 703 62" fill="none" xmlns="http://www.w3.org/2000/svg">
<path d="M14.7331 60.32C13.2931 60.2667 11.9065 59.8933 10.5731 59.2C9.29313 58.5067 8.22646 57.3067 7.37313 55.6C6.51979 53.8933 6.09313 51.5467 6.09313 48.56C6.09313 48.1867 6.09313 47.8133 6.09313 47.44C6.09313 47.0133 6.11979 46.6133 6.17313 46.24C6.38646 43.5733 7.02646 40.6133 8.09313 37.36C9.21313 34.0533 10.6531 30.6933 12.4131 27.28C14.1731 23.8667 16.1731 20.64 18.4131 17.6C20.6531 14.5067 22.9998 11.8667 25.4531 9.68C26.0398 9.14666 26.6265 8.72 27.2131 8.4C27.7998 8.02667 28.4131 7.73333 29.0531 7.52C27.0265 7.89333 24.8931 8.21333 22.6531 8.48C20.4665 8.74666 18.3598 8.98666 16.3331 9.2C14.3598 9.41333 12.6798 9.68 11.2931 10C8.46646 10.64 6.30646 11.8667 4.81313 13.68C3.37313 15.4933 2.67979 17.68 2.73313 20.24C1.87979 19.3333 1.23979 18.4 0.813125 17.44C0.439792 16.48 0.253125 15.5733 0.253125 14.72C0.253125 13.6533 0.466458 12.64 0.893125 11.68C1.37313 10.6667 1.93313 9.81333 2.57313 9.12C3.90646 7.57333 5.58646 6.45333 7.61313 5.76C9.69313 5.06666 11.8531 4.64 14.0931 4.48C16.3865 4.26667 18.5465 4.16 20.5731 4.16H36.9731C37.2931 4.16 37.2931 4.37333 36.9731 4.8C36.7065 5.22666 36.3065 5.70666 35.7731 6.24C35.2398 6.77333 34.7331 7.2 34.2531 7.52C32.8131 8.37333 31.1598 9.94666 29.2931 12.24C27.4265 14.48 25.5331 17.2267 23.6131 20.48C21.7465 23.68 20.0398 27.2267 18.4931 31.12C17.9598 32.4 17.3731 34 16.7331 35.92C16.1465 37.84 15.6131 39.8667 15.1331 42C14.7065 44.08 14.4931 46.0533 14.4931 47.92C14.4931 49.8933 14.8665 51.5733 15.6131 52.96C16.3598 54.2933 17.6665 54.96 19.5331 54.96C20.9731 54.96 22.6798 54.1067 24.6531 52.4C26.6265 50.6933 28.7065 48.48 30.8931 45.76C33.0798 42.9867 35.2131 40.08 37.2931 37.04C38.7331 34.8533 39.9865 32.56 41.0531 30.16C42.1198 27.76 43.1331 25.3867 44.0931 23.04C45.0531 20.6933 46.0665 18.5067 47.1331 16.48C47.7731 15.2533 48.7065 14.0267 49.9331 12.8C51.1598 11.52 52.5198 10.48 54.0131 9.68C55.5598 8.82666 57.1331 8.4 58.7331 8.4C58.9465 8.4 59.1331 8.4 59.2931 8.4C59.5065 8.4 59.7198 8.42666 59.9331 8.48C60.3065 8.53333 60.4931 8.61333 60.4931 8.72C60.5465 8.82666 60.6798 8.98666 60.8931 9.2C59.1331 11.6 57.2665 14.7733 55.2931 18.72C53.3731 22.6667 51.8265 27.0933 50.6531 32C50.1198 34.1867 49.7198 36.2667 49.4531 38.24C49.2398 40.16 49.1331 41.9467 49.1331 43.6C49.1331 47.12 49.7198 49.8933 50.8931 51.92C52.0665 53.9467 53.7731 54.96 56.0131 54.96C58.1465 54.96 60.1731 54.2133 62.0931 52.72C64.0665 51.1733 65.8798 49.1467 67.5331 46.64C69.2398 44.1333 70.7865 41.4133 72.1731 38.48C73.5598 35.5467 74.7598 32.6933 75.7731 29.92C76.3065 28.5333 76.8931 26.8267 77.5331 24.8C78.1731 22.7733 78.7331 20.6667 79.2131 18.48C79.6931 16.24 79.9331 14.1867 79.9331 12.32C79.9331 10.5067 79.6131 9.01333 78.9731 7.84C78.3331 6.61333 77.2131 6 75.6131 6C74.7598 6 73.7998 6.18666 72.7331 6.56C72.8931 5.6 73.5865 4.82666 74.8131 4.24C76.0398 3.6 77.4265 3.28 78.9731 3.28C80.3065 3.28 81.6131 3.54666 82.8931 4.08C84.1731 4.61333 85.2665 5.46666 86.1731 6.64C87.0798 7.81333 87.5865 9.41333 87.6931 11.44C87.8531 14.2133 87.5065 17.2533 86.6531 20.56C85.8531 23.8667 84.6531 27.2267 83.0531 30.64C81.5065 34.0533 79.6665 37.36 77.5331 40.56C75.4531 43.76 73.2131 46.6667 70.8131 49.28C69.3731 50.8267 67.6131 52.4 65.5331 54C63.5065 55.6 61.2931 56.9333 58.8931 58C56.4931 59.0133 54.0131 59.52 51.4531 59.52C51.0798 59.52 50.7065 59.52 50.3331 59.52C49.9598 59.4667 49.5598 59.4133 49.1331 59.36C46.3598 58.9333 44.3865 57.36 43.2131 54.64C42.0398 51.8667 41.4531 48.5333 41.4531 44.64C41.4531 42.6667 41.5865 40.6133 41.8531 38.48C42.1198 36.3467 42.4665 34.1867 42.8931 32C41.2931 35.1467 39.4531 38.5067 37.3731 42.08C35.2931 45.6 32.9998 48.8 30.4931 51.68C28.4131 54.08 26.4131 55.8933 24.4931 57.12C22.6265 58.3467 20.8665 59.2 19.2131 59.68C17.5598 60.1067 16.0665 60.32 14.7331 60.32ZM100.032 58.88C97.5785 60.16 94.9919 60.8 92.2719 60.8C89.9785 60.8 87.8452 60.24 85.8719 59.12C83.8985 58 82.5652 56.2133 81.8719 53.76C81.5519 52.64 81.3919 51.4667 81.3919 50.24C81.3919 48.2133 81.7385 46.1333 82.4319 44C83.1785 41.8133 84.1385 39.8133 85.3119 38C87.1252 35.1733 89.4185 32.8267 92.1919 30.96C94.9652 29.0933 98.0319 28.16 101.392 28.16C103.899 28.16 105.845 28.8 107.232 30.08C108.619 31.36 109.312 32.8533 109.312 34.56C109.312 36.5867 108.619 38.3733 107.232 39.92C105.899 41.4133 104.139 42.56 101.952 43.36C100.885 43.7333 99.7385 44.0267 98.5119 44.24C97.3385 44.4 96.2185 44.48 95.1519 44.48C92.9652 44.48 91.2852 44.1867 90.1119 43.6C89.0985 46.2133 88.5919 48.6133 88.5919 50.8C88.5919 52.7733 89.0452 54.4 89.9519 55.68C90.8585 56.9067 92.2985 57.52 94.2719 57.52C95.9252 57.52 97.5519 57.0667 99.1519 56.16C100.805 55.2533 102.325 54.1333 103.712 52.8C105.152 51.4667 106.352 50.1867 107.312 48.96C108.059 48.0533 108.699 47.2 109.232 46.4C109.765 45.6 110.325 44.6933 110.912 43.68C111.499 42.6133 112.192 41.3067 112.992 39.76C113.205 39.3867 113.392 39.2 113.552 39.2C113.872 39.2 114.032 39.6267 114.032 40.48C114.032 40.96 113.952 41.4933 113.792 42.08C113.685 42.6133 113.472 43.1733 113.152 43.76C112.405 45.0933 111.499 46.56 110.432 48.16C109.419 49.7067 108.379 51.2 107.312 52.64C106.352 53.92 105.259 55.0933 104.032 56.16C102.805 57.2267 101.472 58.1333 100.032 58.88ZM92.7519 41.84C93.0185 42 93.3119 42.1067 93.6319 42.16C93.9519 42.2133 94.2719 42.24 94.5919 42.24C95.6585 42.24 96.7252 42 97.7919 41.52C98.8585 40.9867 99.7652 40.4533 100.512 39.92C101.739 39.0667 102.779 38.0533 103.632 36.88C104.485 35.7067 104.965 34.3733 105.072 32.88C105.125 32.24 104.965 31.7067 104.592 31.28C104.272 30.8 103.685 30.56 102.832 30.56C102.405 30.56 101.872 30.64 101.232 30.8C100.379 31.0133 99.5252 31.4133 98.6719 32C97.8185 32.5867 96.9919 33.28 96.1919 34.08C95.9252 34.3467 95.4452 34.88 94.7519 35.68C94.1119 36.4267 93.4985 37.28 92.9119 38.24C92.3252 39.1467 92.0319 39.9467 92.0319 40.64C92.0319 41.2267 92.2719 41.6267 92.7519 41.84ZM114.304 60.48C112.81 60.48 111.69 59.9467 110.944 58.88C110.197 57.76 109.824 56.2667 109.824 54.4C109.824 54.1333 109.824 53.8667 109.824 53.6C109.824 53.3333 109.85 53.0667 109.904 52.8C110.17 50.7733 110.624 48.48 111.264 45.92C111.957 43.36 112.757 40.6667 113.664 37.84C114.197 36.24 114.864 34.24 115.664 31.84C116.517 29.3867 117.504 26.7733 118.624 24C119.744 21.1733 120.97 18.3733 122.304 15.6C123.69 12.8267 125.21 10.32 126.864 8.08C128.517 5.78666 130.25 3.94666 132.064 2.56C133.93 1.17333 135.904 0.479999 137.984 0.479999C139.69 0.479999 140.864 0.906665 141.504 1.76C142.144 2.56 142.464 3.52 142.464 4.64C142.464 5.81333 142.25 7.01333 141.824 8.24C141.397 9.41333 140.97 10.4 140.544 11.2C139.584 13.12 138.33 15.28 136.784 17.68C135.237 20.08 133.61 22.32 131.904 24.4C130.89 25.7333 129.637 27.2267 128.144 28.88C126.65 30.5333 125.237 32.0533 123.904 33.44C122.624 34.8267 121.69 35.7867 121.104 36.32L119.824 40C119.45 41.0133 119.077 42.2133 118.704 43.6C118.384 44.9867 118.09 46.3733 117.824 47.76C117.61 49.0933 117.424 50.2667 117.264 51.28C117.21 51.4933 117.184 51.7067 117.184 51.92C117.184 52.1333 117.184 52.32 117.184 52.48C117.184 54.08 117.797 54.88 119.024 54.88C119.77 54.88 120.704 54.5333 121.824 53.84C122.89 53.2 123.904 52.3733 124.864 51.36C125.877 50.2933 126.597 49.4933 127.024 48.96C128.09 47.5733 129.104 46.1067 130.064 44.56C131.024 42.96 131.85 41.4933 132.544 40.16C132.81 39.7333 132.997 39.52 133.104 39.52C133.424 39.52 133.584 39.9733 133.584 40.88C133.584 41.3067 133.504 41.8133 133.344 42.4C133.237 42.9333 133.05 43.44 132.784 43.92C132.037 45.2 131.157 46.6133 130.144 48.16C129.13 49.7067 128.09 51.2 127.024 52.64C126.224 53.7067 125.104 54.8533 123.664 56.08C122.224 57.3067 120.677 58.3467 119.024 59.2C117.37 60.0533 115.797 60.48 114.304 60.48ZM122.704 31.76C125.37 28.6133 128.064 25.2533 130.784 21.68C133.557 18.0533 135.85 14.3733 137.664 10.64C137.77 10.3733 138.01 9.84 138.384 9.04C138.757 8.24 139.104 7.36 139.424 6.4C139.744 5.38667 139.904 4.53333 139.904 3.84C139.904 2.93333 139.557 2.48 138.864 2.48H138.304C137.61 2.48 136.784 2.96 135.824 3.92C134.917 4.88 133.984 6.16 133.024 7.76C131.797 9.78666 130.597 12.1333 129.424 14.8C128.25 17.4133 127.104 20.1867 125.984 23.12C124.864 26.0533 123.77 28.9333 122.704 31.76ZM140.229 60.8C137.723 60.8 135.696 60.3467 134.149 59.44C132.603 58.48 131.483 57.2267 130.789 55.68C130.149 54.08 129.829 52.3733 129.829 50.56C129.829 48.7467 130.096 46.9067 130.629 45.04C131.163 43.1733 131.883 41.4133 132.789 39.76C134.656 36.4 136.949 33.6267 139.669 31.44C142.443 29.2533 145.829 28.16 149.829 28.16C152.336 28.16 154.283 28.8 155.669 30.08C157.056 31.36 157.749 32.8533 157.749 34.56C157.749 36.16 157.269 37.6267 156.309 38.96C155.403 40.2933 154.176 40.96 152.629 40.96C151.776 40.96 151.029 40.72 150.389 40.24C149.749 39.76 149.429 39.0133 149.429 38C149.429 37.84 149.429 37.68 149.429 37.52C149.483 37.3067 149.536 37.0933 149.589 36.88C149.909 36.8267 150.363 36.7467 150.949 36.64C151.589 36.48 152.096 36.1067 152.469 35.52C153.163 34.56 153.509 33.6 153.509 32.64C153.509 32.0533 153.323 31.5733 152.949 31.2C152.629 30.7733 152.069 30.56 151.269 30.56C149.829 30.56 148.363 31.0933 146.869 32.16C145.376 33.1733 143.963 34.5333 142.629 36.24C141.349 37.9467 140.229 39.8133 139.269 41.84C137.776 45.0933 137.029 48.08 137.029 50.8C137.029 52.7733 137.483 54.4 138.389 55.68C139.296 56.9067 140.736 57.52 142.709 57.52C145.216 57.52 147.563 56.6667 149.749 54.96C151.989 53.2 153.989 51.1733 155.749 48.88C156.923 47.3867 157.963 45.8667 158.869 44.32C159.829 42.7733 160.629 41.36 161.269 40.08C161.483 39.7067 161.669 39.52 161.829 39.52C162.149 39.52 162.309 39.9733 162.309 40.88C162.309 41.3067 162.229 41.8133 162.069 42.4C161.963 42.9333 161.776 43.44 161.509 43.92C160.603 45.4133 159.669 46.9067 158.709 48.4C157.803 49.8933 156.816 51.3067 155.749 52.64C153.936 54.9867 151.803 56.9333 149.349 58.48C146.896 60.0267 143.856 60.8 140.229 60.8ZM167.621 60.64C165.168 60.64 163.035 59.8667 161.221 58.32C159.461 56.7733 158.581 54.2933 158.581 50.88C158.581 48.3733 159.035 45.76 159.941 43.04C160.848 40.32 162.128 37.7867 163.781 35.44C165.488 33.0933 167.541 31.1733 169.941 29.68C172.341 28.1867 175.035 27.44 178.021 27.44C180.475 27.44 182.368 27.92 183.701 28.88C185.088 29.7867 186.075 31.0133 186.661 32.56C187.248 34.1067 187.541 35.76 187.541 37.52C187.541 38.8533 187.381 40.2133 187.061 41.6C186.795 42.9333 186.395 44.2667 185.861 45.6C186.768 46.6667 187.915 47.2 189.301 47.2C190.795 47.2 192.181 46.64 193.461 45.52C194.208 44.88 194.875 44.08 195.461 43.12C196.101 42.1067 196.661 41.1733 197.141 40.32C197.301 40 197.488 39.84 197.701 39.84C197.968 39.84 198.101 40.2133 198.101 40.96C198.101 41.44 198.021 42 197.861 42.64C197.755 43.28 197.488 43.92 197.061 44.56C196.261 45.9467 195.435 47.0133 194.581 47.76C193.728 48.4533 192.768 49.0133 191.701 49.44C190.901 49.76 190.048 49.92 189.141 49.92C187.488 49.92 185.995 49.4133 184.661 48.4C184.235 49.3067 183.701 50.24 183.061 51.2C181.515 53.8133 179.515 56.0533 177.061 57.92C174.608 59.7333 171.461 60.64 167.621 60.64ZM170.661 57.6C171.888 57.6 173.061 57.2 174.181 56.4C175.355 55.5467 176.421 54.5067 177.381 53.28C178.341 52.0533 179.168 50.7733 179.861 49.44C180.608 48.1067 181.221 46.9333 181.701 45.92C179.888 44.3733 178.981 42.4267 178.981 40.08C178.981 38.5333 179.408 37.3333 180.261 36.48C181.115 35.6267 182.288 35.2533 183.781 35.36C183.728 34.1333 183.408 33.12 182.821 32.32C182.235 31.52 181.275 31.12 179.941 31.12C178.715 31.12 177.541 31.4933 176.421 32.24C175.355 32.9867 174.341 33.9467 173.381 35.12C172.475 36.24 171.648 37.4133 170.901 38.64C170.208 39.8133 169.621 40.88 169.141 41.84C168.448 43.2267 167.808 44.9067 167.221 46.88C166.635 48.8533 166.341 50.6933 166.341 52.4C166.341 53.8933 166.635 55.1467 167.221 56.16C167.861 57.12 169.008 57.6 170.661 57.6ZM234.039 60.48C232.225 60.48 230.972 59.9467 230.279 58.88C229.639 57.76 229.319 56.48 229.319 55.04C229.319 53.4933 229.559 51.7067 230.039 49.68C230.572 47.6 231.212 45.4667 231.959 43.28C232.759 41.04 233.559 38.96 234.359 37.04C234.625 36.4 234.865 35.7067 235.079 34.96C235.345 34.2133 235.479 33.5467 235.479 32.96C235.479 31.8933 234.999 31.36 234.039 31.36C233.665 31.36 233.239 31.44 232.759 31.6C232.279 31.7067 231.719 31.9467 231.079 32.32C229.959 32.8533 228.892 33.6 227.879 34.56C226.865 35.4667 226.145 36.16 225.719 36.64C223.692 39.2533 222.145 42.08 221.079 45.12C220.065 48.16 218.999 51.2533 217.879 54.4C217.559 55.3067 217.239 56.24 216.919 57.2C216.599 58.16 216.305 59.0933 216.039 60H208.199C209.105 57.44 210.012 54.9067 210.919 52.4C211.879 49.84 212.839 47.3067 213.799 44.8C214.385 43.36 214.919 41.9733 215.399 40.64C215.879 39.2533 216.305 37.9733 216.679 36.8C216.892 36.2133 217.079 35.6 217.239 34.96C217.399 34.32 217.479 33.7333 217.479 33.2C217.479 31.9733 216.945 31.36 215.879 31.36C215.505 31.36 215.052 31.44 214.519 31.6C214.039 31.7067 213.452 31.9467 212.759 32.32C211.639 32.8533 210.572 33.6 209.559 34.56C208.545 35.4667 207.852 36.16 207.479 36.64C206.785 37.4933 206.119 38.4533 205.479 39.52C204.839 40.5333 204.279 41.5733 203.799 42.64C202.732 44.9333 201.879 47.12 201.239 49.2C200.652 51.2267 200.092 52.96 199.559 54.4C199.239 55.3067 198.919 56.24 198.599 57.2C198.279 58.16 197.985 59.0933 197.719 60H189.959C189.959 60 190.145 59.3333 190.519 58C190.892 56.6667 191.345 55.3333 191.879 54L197.079 40.72C197.239 40.2933 197.479 39.6 197.799 38.64C198.172 37.6267 198.545 36.5333 198.919 35.36C199.292 34.1333 199.612 32.96 199.879 31.84C200.145 30.6667 200.279 29.7067 200.279 28.96C200.279 28.48 200.225 28.16 200.119 28C200.599 28 201.132 28 201.719 28C202.359 27.9467 202.945 27.92 203.479 27.92C204.225 27.92 204.919 27.9467 205.559 28C206.252 28.0533 206.705 28.1867 206.919 28.4C207.505 28.8267 207.799 29.4667 207.799 30.32C207.799 31.0133 207.665 31.7067 207.399 32.4C207.132 33.04 206.945 33.5733 206.839 34C207.585 33.3067 208.412 32.64 209.319 32C210.225 31.36 211.532 30.5333 213.239 29.52C214.305 28.9333 215.559 28.4533 216.999 28.08C218.439 27.7067 219.745 27.52 220.919 27.52C223.745 27.52 225.159 28.6933 225.159 31.04C225.159 32 224.865 33.28 224.279 34.88C225.399 33.76 226.545 32.8 227.719 32C228.945 31.1467 230.225 30.32 231.559 29.52C232.625 28.9333 233.879 28.4533 235.319 28.08C236.759 27.7067 238.065 27.52 239.239 27.52C242.065 27.52 243.479 28.72 243.479 31.12C243.479 31.6533 243.372 32.2667 243.159 32.96C242.999 33.6533 242.759 34.4267 242.439 35.28C242.119 36.1333 241.665 37.3067 241.079 38.8C240.492 40.24 239.879 41.7867 239.239 43.44C238.652 45.04 238.145 46.5867 237.719 48.08C237.345 49.52 237.159 50.72 237.159 51.68C237.159 52.2667 237.239 52.8 237.399 53.28C237.612 53.7067 237.985 53.92 238.519 53.92C238.892 53.92 239.425 53.7333 240.119 53.36C241.079 52.7733 242.039 52 242.999 51.04C243.959 50.08 244.599 49.3867 244.919 48.96C245.985 47.5733 246.999 46.1067 247.959 44.56C248.919 42.96 249.745 41.4933 250.439 40.16C250.705 39.7333 250.892 39.52 250.999 39.52C251.319 39.52 251.479 39.9733 251.479 40.88C251.479 41.3067 251.399 41.8133 251.239 42.4C251.132 42.9333 250.945 43.44 250.679 43.92C249.932 45.2 249.052 46.6133 248.039 48.16C247.025 49.7067 245.985 51.2 244.919 52.64C244.172 53.6533 243.185 54.7733 241.959 56C240.732 57.2267 239.425 58.2933 238.039 59.2C236.652 60.0533 235.319 60.48 234.039 60.48ZM266.282 58.88C263.829 60.16 261.242 60.8 258.522 60.8C256.229 60.8 254.095 60.24 252.122 59.12C250.149 58 248.815 56.2133 248.122 53.76C247.802 52.64 247.642 51.4667 247.642 50.24C247.642 48.2133 247.989 46.1333 248.682 44C249.429 41.8133 250.389 39.8133 251.562 38C253.375 35.1733 255.669 32.8267 258.442 30.96C261.215 29.0933 264.282 28.16 267.642 28.16C270.149 28.16 272.095 28.8 273.482 30.08C274.869 31.36 275.562 32.8533 275.562 34.56C275.562 36.5867 274.869 38.3733 273.482 39.92C272.149 41.4133 270.389 42.56 268.202 43.36C267.135 43.7333 265.989 44.0267 264.762 44.24C263.589 44.4 262.469 44.48 261.402 44.48C259.215 44.48 257.535 44.1867 256.362 43.6C255.349 46.2133 254.842 48.6133 254.842 50.8C254.842 52.7733 255.295 54.4 256.202 55.68C257.109 56.9067 258.549 57.52 260.522 57.52C262.175 57.52 263.802 57.0667 265.402 56.16C267.055 55.2533 268.575 54.1333 269.962 52.8C271.402 51.4667 272.602 50.1867 273.562 48.96C274.309 48.0533 274.949 47.2 275.482 46.4C276.015 45.6 276.575 44.6933 277.162 43.68C277.749 42.6133 278.442 41.3067 279.242 39.76C279.455 39.3867 279.642 39.2 279.802 39.2C280.122 39.2 280.282 39.6267 280.282 40.48C280.282 40.96 280.202 41.4933 280.042 42.08C279.935 42.6133 279.722 43.1733 279.402 43.76C278.655 45.0933 277.749 46.56 276.682 48.16C275.669 49.7067 274.629 51.2 273.562 52.64C272.602 53.92 271.509 55.0933 270.282 56.16C269.055 57.2267 267.722 58.1333 266.282 58.88ZM259.002 41.84C259.269 42 259.562 42.1067 259.882 42.16C260.202 42.2133 260.522 42.24 260.842 42.24C261.909 42.24 262.975 42 264.042 41.52C265.109 40.9867 266.015 40.4533 266.762 39.92C267.989 39.0667 269.029 38.0533 269.882 36.88C270.735 35.7067 271.215 34.3733 271.322 32.88C271.375 32.24 271.215 31.7067 270.842 31.28C270.522 30.8 269.935 30.56 269.082 30.56C268.655 30.56 268.122 30.64 267.482 30.8C266.629 31.0133 265.775 31.4133 264.922 32C264.069 32.5867 263.242 33.28 262.442 34.08C262.175 34.3467 261.695 34.88 261.002 35.68C260.362 36.4267 259.749 37.28 259.162 38.24C258.575 39.1467 258.282 39.9467 258.282 40.64C258.282 41.2267 258.522 41.6267 259.002 41.84ZM314.138 61.76C312.378 61.76 311.205 61.1467 310.618 59.92C310.031 58.64 309.738 57.2267 309.738 55.68C309.738 54.6133 309.818 53.5733 309.978 52.56C310.138 51.4933 310.298 50.6133 310.458 49.92C310.885 47.8933 311.578 45.4933 312.538 42.72C313.498 39.8933 314.591 36.9333 315.818 33.84C317.098 30.6933 318.431 27.6 319.818 24.56C321.205 21.4667 322.538 18.5867 323.818 15.92C325.151 13.2 326.325 10.88 327.338 8.96C326.111 9.01333 324.698 9.01333 323.098 8.96C321.498 8.85333 319.845 8.8 318.138 8.8C315.205 8.8 312.298 9.04 309.418 9.52C306.591 9.94666 304.271 10.9867 302.458 12.64C301.605 13.44 300.991 14.2933 300.618 15.2C300.245 16.1067 300.058 17.0133 300.058 17.92C300.058 18.9333 300.218 19.92 300.538 20.88C300.591 20.9867 300.618 21.12 300.618 21.28C300.618 21.8133 300.351 22.08 299.818 22.08C299.498 22.08 299.258 21.9467 299.098 21.68C298.565 20.8267 298.165 19.9733 297.898 19.12C297.685 18.2133 297.578 17.3333 297.578 16.48C297.578 14.9867 297.845 13.5733 298.378 12.24C298.911 10.9067 299.551 9.81333 300.298 8.96C302.165 6.77333 304.698 5.33333 307.898 4.64C311.098 3.89333 314.431 3.52 317.898 3.52C320.565 3.52 323.151 3.62666 325.658 3.84C328.218 4.05333 330.485 4.21333 332.458 4.32C334.325 4.42667 336.645 4.61333 339.418 4.88C342.191 5.09333 344.885 5.2 347.498 5.2C349.845 5.2 351.951 5.04 353.818 4.72C355.685 4.4 357.045 3.81333 357.898 2.96C358.058 3.28 358.138 3.65333 358.138 4.08C358.138 5.2 357.498 6.29333 356.218 7.36C354.938 8.42666 353.205 9.14666 351.018 9.52C350.325 9.62667 349.525 9.70667 348.618 9.76C347.765 9.81333 346.858 9.84 345.898 9.84C344.298 9.84 342.698 9.81333 341.098 9.76C339.498 9.65333 338.085 9.54666 336.858 9.44C335.631 9.33333 334.805 9.30667 334.378 9.36C334.058 9.84 333.551 10.72 332.858 12C332.218 13.28 331.525 14.6667 330.778 16.16C330.031 17.6533 329.365 19.0133 328.778 20.24C327.765 22.3733 326.698 24.7733 325.578 27.44C324.458 30.1067 323.391 32.8 322.378 35.52C321.365 38.24 320.485 40.8267 319.738 43.28C319.045 45.7333 318.591 47.84 318.378 49.6C318.325 49.76 318.298 49.9467 318.298 50.16C318.298 50.32 318.298 50.48 318.298 50.64C318.298 51.6533 318.485 52.5333 318.858 53.28C319.285 53.9733 319.925 54.32 320.778 54.32C321.525 54.32 322.431 53.92 323.498 53.12C324.565 52.32 325.791 50.9867 327.178 49.12C327.445 48.8 327.685 48.64 327.898 48.64C328.218 48.64 328.378 48.9067 328.378 49.44C328.378 49.8133 328.245 50.32 327.978 50.96C327.765 51.6 327.365 52.3467 326.778 53.2C326.298 53.8933 325.525 54.8267 324.458 56C323.391 57.12 322.351 58.08 321.338 58.88C320.431 59.6267 319.311 60.2933 317.978 60.88C316.645 61.4667 315.365 61.76 314.138 61.76ZM341.371 60.64C338.918 60.64 336.785 59.8667 334.971 58.32C333.211 56.7733 332.331 54.2933 332.331 50.88C332.331 48.3733 332.785 45.76 333.691 43.04C334.598 40.32 335.878 37.7867 337.531 35.44C339.238 33.0933 341.291 31.1733 343.691 29.68C346.091 28.1867 348.785 27.44 351.771 27.44C354.225 27.44 356.118 27.92 357.451 28.88C358.838 29.7867 359.825 31.0133 360.411 32.56C360.998 34.1067 361.291 35.76 361.291 37.52C361.291 38.8533 361.131 40.2133 360.811 41.6C360.545 42.9333 360.145 44.2667 359.611 45.6C360.518 46.6667 361.665 47.2 363.051 47.2C364.545 47.2 365.931 46.64 367.211 45.52C367.958 44.88 368.625 44.08 369.211 43.12C369.851 42.1067 370.411 41.1733 370.891 40.32C371.051 40 371.238 39.84 371.451 39.84C371.718 39.84 371.851 40.2133 371.851 40.96C371.851 41.44 371.771 42 371.611 42.64C371.505 43.28 371.238 43.92 370.811 44.56C370.011 45.9467 369.185 47.0133 368.331 47.76C367.478 48.4533 366.518 49.0133 365.451 49.44C364.651 49.76 363.798 49.92 362.891 49.92C361.238 49.92 359.745 49.4133 358.411 48.4C357.985 49.3067 357.451 50.24 356.811 51.2C355.265 53.8133 353.265 56.0533 350.811 57.92C348.358 59.7333 345.211 60.64 341.371 60.64ZM344.411 57.6C345.638 57.6 346.811 57.2 347.931 56.4C349.105 55.5467 350.171 54.5067 351.131 53.28C352.091 52.0533 352.918 50.7733 353.611 49.44C354.358 48.1067 354.971 46.9333 355.451 45.92C353.638 44.3733 352.731 42.4267 352.731 40.08C352.731 38.5333 353.158 37.3333 354.011 36.48C354.865 35.6267 356.038 35.2533 357.531 35.36C357.478 34.1333 357.158 33.12 356.571 32.32C355.985 31.52 355.025 31.12 353.691 31.12C352.465 31.12 351.291 31.4933 350.171 32.24C349.105 32.9867 348.091 33.9467 347.131 35.12C346.225 36.24 345.398 37.4133 344.651 38.64C343.958 39.8133 343.371 40.88 342.891 41.84C342.198 43.2267 341.558 44.9067 340.971 46.88C340.385 48.8533 340.091 50.6933 340.091 52.4C340.091 53.8933 340.385 55.1467 340.971 56.16C341.611 57.12 342.758 57.6 344.411 57.6ZM406.013 61.76C404.253 61.76 403.08 61.1467 402.493 59.92C401.906 58.64 401.613 57.2267 401.613 55.68C401.613 54.6133 401.693 53.5733 401.853 52.56C402.013 51.4933 402.173 50.6133 402.333 49.92C402.76 47.8933 403.453 45.4933 404.413 42.72C405.373 39.8933 406.466 36.9333 407.693 33.84C408.973 30.6933 410.306 27.6 411.693 24.56C413.08 21.4667 414.413 18.5867 415.693 15.92C417.026 13.2 418.2 10.88 419.213 8.96C417.986 9.01333 416.573 9.01333 414.973 8.96C413.373 8.85333 411.72 8.8 410.013 8.8C407.08 8.8 404.173 9.04 401.293 9.52C398.466 9.94666 396.146 10.9867 394.333 12.64C393.48 13.44 392.866 14.2933 392.493 15.2C392.12 16.1067 391.933 17.0133 391.933 17.92C391.933 18.9333 392.093 19.92 392.413 20.88C392.466 20.9867 392.493 21.12 392.493 21.28C392.493 21.8133 392.226 22.08 391.693 22.08C391.373 22.08 391.133 21.9467 390.973 21.68C390.44 20.8267 390.04 19.9733 389.773 19.12C389.56 18.2133 389.453 17.3333 389.453 16.48C389.453 14.9867 389.72 13.5733 390.253 12.24C390.786 10.9067 391.426 9.81333 392.173 8.96C394.04 6.77333 396.573 5.33333 399.773 4.64C402.973 3.89333 406.306 3.52 409.773 3.52C412.44 3.52 415.026 3.62666 417.533 3.84C420.093 4.05333 422.36 4.21333 424.333 4.32C426.2 4.42667 428.52 4.61333 431.293 4.88C434.066 5.09333 436.76 5.2 439.373 5.2C441.72 5.2 443.826 5.04 445.693 4.72C447.56 4.4 448.92 3.81333 449.773 2.96C449.933 3.28 450.013 3.65333 450.013 4.08C450.013 5.2 449.373 6.29333 448.093 7.36C446.813 8.42666 445.08 9.14666 442.893 9.52C442.2 9.62667 441.4 9.70667 440.493 9.76C439.64 9.81333 438.733 9.84 437.773 9.84C436.173 9.84 434.573 9.81333 432.973 9.76C431.373 9.65333 429.96 9.54666 428.733 9.44C427.506 9.33333 426.68 9.30667 426.253 9.36C425.933 9.84 425.426 10.72 424.733 12C424.093 13.28 423.4 14.6667 422.653 16.16C421.906 17.6533 421.24 19.0133 420.653 20.24C419.64 22.3733 418.573 24.7733 417.453 27.44C416.333 30.1067 415.266 32.8 414.253 35.52C413.24 38.24 412.36 40.8267 411.613 43.28C410.92 45.7333 410.466 47.84 410.253 49.6C410.2 49.76 410.173 49.9467 410.173 50.16C410.173 50.32 410.173 50.48 410.173 50.64C410.173 51.6533 410.36 52.5333 410.733 53.28C411.16 53.9733 411.8 54.32 412.653 54.32C413.4 54.32 414.306 53.92 415.373 53.12C416.44 52.32 417.666 50.9867 419.053 49.12C419.32 48.8 419.56 48.64 419.773 48.64C420.093 48.64 420.253 48.9067 420.253 49.44C420.253 49.8133 420.12 50.32 419.853 50.96C419.64 51.6 419.24 52.3467 418.653 53.2C418.173 53.8933 417.4 54.8267 416.333 56C415.266 57.12 414.226 58.08 413.213 58.88C412.306 59.6267 411.186 60.2933 409.853 60.88C408.52 61.4667 407.24 61.76 406.013 61.76ZM441.646 21.6C440.26 21.12 439.566 20.2133 439.566 18.88C439.566 17.6533 440.046 16.4 441.006 15.12C442.02 13.7867 443.113 12.9333 444.286 12.56C444.553 12.4533 444.766 12.4 444.926 12.4C445.14 12.4 445.353 12.4 445.566 12.4C446.473 12.4 447.22 12.6667 447.806 13.2C448.393 13.7333 448.686 14.3467 448.686 15.04C448.686 16 448.18 16.8 447.166 17.44C446.366 17.3333 445.593 17.52 444.846 18C444.1 18.48 443.433 19.0667 442.846 19.76C442.313 20.4533 441.913 21.0667 441.646 21.6ZM427.886 60.48C427.193 60.48 426.526 60.32 425.886 60C425.246 59.7333 424.713 59.1733 424.286 58.32C423.7 57.04 423.406 55.52 423.406 53.76C423.406 51.84 423.7 49.7067 424.286 47.36C424.873 44.96 425.646 42.5067 426.606 40C426.98 39.0933 427.46 37.9733 428.046 36.64C428.633 35.3067 429.326 33.9733 430.126 32.64C430.926 31.3067 431.833 30.2133 432.846 29.36C433.913 28.4533 435.06 28 436.286 28C436.873 28 437.7 28.0267 438.766 28.08C439.833 28.1333 440.606 28.1333 441.086 28.08C440.766 28.2933 440.393 28.72 439.966 29.36C439.54 30 439.14 30.6667 438.766 31.36C438.393 32 438.1 32.5067 437.886 32.88C436.5 35.6533 435.193 38.4 433.966 41.12C432.74 43.84 431.806 46.4533 431.166 48.96C431.06 49.3867 430.98 49.8133 430.926 50.24C430.873 50.6667 430.846 51.0667 430.846 51.44C430.846 52.9867 431.353 53.76 432.366 53.76C432.793 53.76 433.246 53.6533 433.726 53.44C434.26 53.1733 434.873 52.7733 435.566 52.24C436.793 51.28 437.86 50.1867 438.766 48.96C439.833 47.5733 440.846 46.1067 441.806 44.56C442.766 42.96 443.593 41.4933 444.286 40.16C444.553 39.7333 444.74 39.52 444.846 39.52C445.166 39.52 445.326 39.9733 445.326 40.88C445.326 41.3067 445.246 41.8133 445.086 42.4C444.98 42.9333 444.793 43.44 444.526 43.92C443.78 45.2 442.9 46.6133 441.886 48.16C440.873 49.7067 439.833 51.2 438.766 52.64C438.02 53.6533 437.033 54.7733 435.806 56C434.58 57.2267 433.273 58.2933 431.886 59.2C430.5 60.0533 429.166 60.48 427.886 60.48ZM481.07 60.48C479.257 60.48 478.003 59.9467 477.31 58.88C476.67 57.76 476.35 56.48 476.35 55.04C476.35 53.4933 476.59 51.7067 477.07 49.68C477.603 47.6 478.243 45.4667 478.99 43.28C479.79 41.04 480.59 38.96 481.39 37.04C481.657 36.4 481.897 35.7067 482.11 34.96C482.377 34.2133 482.51 33.5467 482.51 32.96C482.51 31.8933 482.03 31.36 481.07 31.36C480.697 31.36 480.27 31.44 479.79 31.6C479.31 31.7067 478.75 31.9467 478.11 32.32C476.99 32.8533 475.923 33.6 474.91 34.56C473.897 35.4667 473.177 36.16 472.75 36.64C470.723 39.2533 469.177 42.08 468.11 45.12C467.097 48.16 466.03 51.2533 464.91 54.4C464.59 55.3067 464.27 56.24 463.95 57.2C463.63 58.16 463.337 59.0933 463.07 60H455.23C456.137 57.44 457.043 54.9067 457.95 52.4C458.91 49.84 459.87 47.3067 460.83 44.8C461.417 43.36 461.95 41.9733 462.43 40.64C462.91 39.2533 463.337 37.9733 463.71 36.8C463.923 36.2133 464.11 35.6 464.27 34.96C464.43 34.32 464.51 33.7333 464.51 33.2C464.51 31.9733 463.977 31.36 462.91 31.36C462.537 31.36 462.083 31.44 461.55 31.6C461.07 31.7067 460.483 31.9467 459.79 32.32C458.67 32.8533 457.603 33.6 456.59 34.56C455.577 35.4667 454.883 36.16 454.51 36.64C453.817 37.4933 453.15 38.4533 452.51 39.52C451.87 40.5333 451.31 41.5733 450.83 42.64C449.763 44.9333 448.91 47.12 448.27 49.2C447.683 51.2267 447.123 52.96 446.59 54.4C446.27 55.3067 445.95 56.24 445.63 57.2C445.31 58.16 445.017 59.0933 444.75 60H436.99C436.99 60 437.177 59.3333 437.55 58C437.923 56.6667 438.377 55.3333 438.91 54L444.11 40.72C444.27 40.2933 444.51 39.6 444.83 38.64C445.203 37.6267 445.577 36.5333 445.95 35.36C446.323 34.1333 446.643 32.96 446.91 31.84C447.177 30.6667 447.31 29.7067 447.31 28.96C447.31 28.48 447.257 28.16 447.15 28C447.63 28 448.163 28 448.75 28C449.39 27.9467 449.977 27.92 450.51 27.92C451.257 27.92 451.95 27.9467 452.59 28C453.283 28.0533 453.737 28.1867 453.95 28.4C454.537 28.8267 454.83 29.4667 454.83 30.32C454.83 31.0133 454.697 31.7067 454.43 32.4C454.163 33.04 453.977 33.5733 453.87 34C454.617 33.3067 455.443 32.64 456.35 32C457.257 31.36 458.563 30.5333 460.27 29.52C461.337 28.9333 462.59 28.4533 464.03 28.08C465.47 27.7067 466.777 27.52 467.95 27.52C470.777 27.52 472.19 28.6933 472.19 31.04C472.19 32 471.897 33.28 471.31 34.88C472.43 33.76 473.577 32.8 474.75 32C475.977 31.1467 477.257 30.32 478.59 29.52C479.657 28.9333 480.91 28.4533 482.35 28.08C483.79 27.7067 485.097 27.52 486.27 27.52C489.097 27.52 490.51 28.72 490.51 31.12C490.51 31.6533 490.403 32.2667 490.19 32.96C490.03 33.6533 489.79 34.4267 489.47 35.28C489.15 36.1333 488.697 37.3067 488.11 38.8C487.523 40.24 486.91 41.7867 486.27 43.44C485.683 45.04 485.177 46.5867 484.75 48.08C484.377 49.52 484.19 50.72 484.19 51.68C484.19 52.2667 484.27 52.8 484.43 53.28C484.643 53.7067 485.017 53.92 485.55 53.92C485.923 53.92 486.457 53.7333 487.15 53.36C488.11 52.7733 489.07 52 490.03 51.04C490.99 50.08 491.63 49.3867 491.95 48.96C493.017 47.5733 494.03 46.1067 494.99 44.56C495.95 42.96 496.777 41.4933 497.47 40.16C497.737 39.7333 497.923 39.52 498.03 39.52C498.35 39.52 498.51 39.9733 498.51 40.88C498.51 41.3067 498.43 41.8133 498.27 42.4C498.163 42.9333 497.977 43.44 497.71 43.92C496.963 45.2 496.083 46.6133 495.07 48.16C494.057 49.7067 493.017 51.2 491.95 52.64C491.203 53.6533 490.217 54.7733 488.99 56C487.763 57.2267 486.457 58.2933 485.07 59.2C483.683 60.0533 482.35 60.48 481.07 60.48ZM513.313 58.88C510.86 60.16 508.273 60.8 505.553 60.8C503.26 60.8 501.126 60.24 499.153 59.12C497.18 58 495.846 56.2133 495.153 53.76C494.833 52.64 494.673 51.4667 494.673 50.24C494.673 48.2133 495.02 46.1333 495.713 44C496.46 41.8133 497.42 39.8133 498.593 38C500.406 35.1733 502.7 32.8267 505.473 30.96C508.246 29.0933 511.313 28.16 514.673 28.16C517.18 28.16 519.126 28.8 520.513 30.08C521.9 31.36 522.593 32.8533 522.593 34.56C522.593 36.5867 521.9 38.3733 520.513 39.92C519.18 41.4133 517.42 42.56 515.233 43.36C514.166 43.7333 513.02 44.0267 511.793 44.24C510.62 44.4 509.5 44.48 508.433 44.48C506.246 44.48 504.566 44.1867 503.393 43.6C502.38 46.2133 501.873 48.6133 501.873 50.8C501.873 52.7733 502.326 54.4 503.233 55.68C504.14 56.9067 505.58 57.52 507.553 57.52C509.206 57.52 510.833 57.0667 512.433 56.16C514.086 55.2533 515.606 54.1333 516.993 52.8C518.433 51.4667 519.633 50.1867 520.593 48.96C521.34 48.0533 521.98 47.2 522.513 46.4C523.046 45.6 523.606 44.6933 524.193 43.68C524.78 42.6133 525.473 41.3067 526.273 39.76C526.486 39.3867 526.673 39.2 526.833 39.2C527.153 39.2 527.313 39.6267 527.313 40.48C527.313 40.96 527.233 41.4933 527.073 42.08C526.966 42.6133 526.753 43.1733 526.433 43.76C525.686 45.0933 524.78 46.56 523.713 48.16C522.7 49.7067 521.66 51.2 520.593 52.64C519.633 53.92 518.54 55.0933 517.313 56.16C516.086 57.2267 514.753 58.1333 513.313 58.88ZM506.033 41.84C506.3 42 506.593 42.1067 506.913 42.16C507.233 42.2133 507.553 42.24 507.873 42.24C508.94 42.24 510.006 42 511.073 41.52C512.14 40.9867 513.046 40.4533 513.793 39.92C515.02 39.0667 516.06 38.0533 516.913 36.88C517.766 35.7067 518.246 34.3733 518.353 32.88C518.406 32.24 518.246 31.7067 517.873 31.28C517.553 30.8 516.966 30.56 516.113 30.56C515.686 30.56 515.153 30.64 514.513 30.8C513.66 31.0133 512.806 31.4133 511.953 32C511.1 32.5867 510.273 33.28 509.473 34.08C509.206 34.3467 508.726 34.88 508.033 35.68C507.393 36.4267 506.78 37.28 506.193 38.24C505.606 39.1467 505.313 39.9467 505.313 40.64C505.313 41.2267 505.553 41.6267 506.033 41.84ZM535.905 60.32C534.465 60.2667 533.078 59.8933 531.745 59.2C530.465 58.5067 529.398 57.3067 528.545 55.6C527.692 53.8933 527.265 51.5467 527.265 48.56C527.265 48.1867 527.265 47.8133 527.265 47.44C527.265 47.0133 527.292 46.6133 527.345 46.24C527.558 43.5733 528.198 40.6133 529.265 37.36C530.385 34.0533 531.825 30.6933 533.585 27.28C535.345 23.8667 537.345 20.64 539.585 17.6C541.825 14.5067 544.172 11.8667 546.625 9.68C547.212 9.14666 547.798 8.72 548.385 8.4C548.972 8.02667 549.585 7.73333 550.225 7.52C548.198 7.89333 546.065 8.21333 543.825 8.48C541.638 8.74666 539.532 8.98666 537.505 9.2C535.532 9.41333 533.852 9.68 532.465 10C529.638 10.64 527.478 11.8667 525.985 13.68C524.545 15.4933 523.852 17.68 523.905 20.24C523.052 19.3333 522.412 18.4 521.985 17.44C521.612 16.48 521.425 15.5733 521.425 14.72C521.425 13.6533 521.638 12.64 522.065 11.68C522.545 10.6667 523.105 9.81333 523.745 9.12C525.078 7.57333 526.758 6.45333 528.785 5.76C530.865 5.06666 533.025 4.64 535.265 4.48C537.558 4.26667 539.718 4.16 541.745 4.16H558.145C558.465 4.16 558.465 4.37333 558.145 4.8C557.878 5.22666 557.478 5.70666 556.945 6.24C556.412 6.77333 555.905 7.2 555.425 7.52C553.985 8.37333 552.332 9.94666 550.465 12.24C548.598 14.48 546.705 17.2267 544.785 20.48C542.918 23.68 541.212 27.2267 539.665 31.12C539.132 32.4 538.545 34 537.905 35.92C537.318 37.84 536.785 39.8667 536.305 42C535.878 44.08 535.665 46.0533 535.665 47.92C535.665 49.8933 536.038 51.5733 536.785 52.96C537.532 54.2933 538.838 54.96 540.705 54.96C542.145 54.96 543.852 54.1067 545.825 52.4C547.798 50.6933 549.878 48.48 552.065 45.76C554.252 42.9867 556.385 40.08 558.465 37.04C559.905 34.8533 561.158 32.56 562.225 30.16C563.292 27.76 564.305 25.3867 565.265 23.04C566.225 20.6933 567.238 18.5067 568.305 16.48C568.945 15.2533 569.878 14.0267 571.105 12.8C572.332 11.52 573.692 10.48 575.185 9.68C576.732 8.82666 578.305 8.4 579.905 8.4C580.118 8.4 580.305 8.4 580.465 8.4C580.678 8.4 580.892 8.42666 581.105 8.48C581.478 8.53333 581.665 8.61333 581.665 8.72C581.718 8.82666 581.852 8.98666 582.065 9.2C580.305 11.6 578.438 14.7733 576.465 18.72C574.545 22.6667 572.998 27.0933 571.825 32C571.292 34.1867 570.892 36.2667 570.625 38.24C570.412 40.16 570.305 41.9467 570.305 43.6C570.305 47.12 570.892 49.8933 572.065 51.92C573.238 53.9467 574.945 54.96 577.185 54.96C579.318 54.96 581.345 54.2133 583.265 52.72C585.238 51.1733 587.052 49.1467 588.705 46.64C590.412 44.1333 591.958 41.4133 593.345 38.48C594.732 35.5467 595.932 32.6933 596.945 29.92C597.478 28.5333 598.065 26.8267 598.705 24.8C599.345 22.7733 599.905 20.6667 600.385 18.48C600.865 16.24 601.105 14.1867 601.105 12.32C601.105 10.5067 600.785 9.01333 600.145 7.84C599.505 6.61333 598.385 6 596.785 6C595.932 6 594.972 6.18666 593.905 6.56C594.065 5.6 594.758 4.82666 595.985 4.24C597.212 3.6 598.598 3.28 600.145 3.28C601.478 3.28 602.785 3.54666 604.065 4.08C605.345 4.61333 606.438 5.46666 607.345 6.64C608.252 7.81333 608.758 9.41333 608.865 11.44C609.025 14.2133 608.678 17.2533 607.825 20.56C607.025 23.8667 605.825 27.2267 604.225 30.64C602.678 34.0533 600.838 37.36 598.705 40.56C596.625 43.76 594.385 46.6667 591.985 49.28C590.545 50.8267 588.785 52.4 586.705 54C584.678 55.6 582.465 56.9333 580.065 58C577.665 59.0133 575.185 59.52 572.625 59.52C572.252 59.52 571.878 59.52 571.505 59.52C571.132 59.4667 570.732 59.4133 570.305 59.36C567.532 58.9333 565.558 57.36 564.385 54.64C563.212 51.8667 562.625 48.5333 562.625 44.64C562.625 42.6667 562.758 40.6133 563.025 38.48C563.292 36.3467 563.638 34.1867 564.065 32C562.465 35.1467 560.625 38.5067 558.545 42.08C556.465 45.6 554.172 48.8 551.665 51.68C549.585 54.08 547.585 55.8933 545.665 57.12C543.798 58.3467 542.038 59.2 540.385 59.68C538.732 60.1067 537.238 60.32 535.905 60.32ZM626.964 60.48C625.31 60.48 624.164 59.84 623.524 58.56C622.937 57.28 622.644 55.7067 622.644 53.84C622.644 52.1333 622.804 50.4533 623.124 48.8C623.284 48.0533 623.444 47.3067 623.604 46.56C623.817 45.76 624.057 44.9333 624.324 44.08C623.417 45.7333 622.457 47.3333 621.444 48.88C620.484 50.4267 619.497 51.7867 618.484 52.96C616.777 55.04 614.964 56.7733 613.044 58.16C611.177 59.5467 609.31 60.24 607.444 60.24C605.95 60.24 604.67 59.7067 603.604 58.64C602.59 57.52 602.084 55.6 602.084 52.88C602.084 50.1067 602.564 47.2533 603.524 44.32C604.484 41.3867 605.817 38.6667 607.524 36.16C609.284 33.6 611.337 31.5467 613.684 30C616.084 28.4533 618.697 27.68 621.524 27.68C622.43 27.68 623.417 27.8133 624.484 28.08C625.55 28.3467 626.537 28.8533 627.444 29.6C628.35 30.2933 628.964 31.28 629.284 32.56C629.337 32.4533 629.39 32.3733 629.444 32.32C629.55 32.2667 629.63 32.2133 629.684 32.16C630.43 30.9867 631.284 30 632.244 29.2C633.204 28.4 634.27 28 635.444 28C636.03 28 636.857 28.0267 637.924 28.08C638.99 28.1333 639.764 28.1333 640.244 28.08C639.977 28.2933 639.604 28.72 639.124 29.36C638.697 30 638.297 30.6667 637.924 31.36C637.55 32 637.257 32.5067 637.044 32.88C635.604 35.6533 634.297 38.4 633.124 41.12C631.95 43.84 631.044 46.4533 630.404 48.96C630.244 49.4933 630.137 50 630.084 50.48C630.03 50.9067 630.004 51.3333 630.004 51.76C630.004 53.1467 630.457 53.84 631.364 53.84C632.217 53.84 633.284 53.3067 634.564 52.24C636.43 50.7467 638.057 48.88 639.444 46.64C640.884 44.4 642.137 42.24 643.204 40.16C643.417 39.7867 643.604 39.6 643.764 39.6C644.084 39.6 644.244 40.0533 644.244 40.96C644.244 41.3867 644.164 41.8667 644.004 42.4C643.897 42.9333 643.71 43.44 643.444 43.92C642.697 45.2 641.71 46.7733 640.484 48.64C639.31 50.5067 637.977 52.3467 636.484 54.16C634.99 55.92 633.417 57.4133 631.764 58.64C630.164 59.8667 628.564 60.48 626.964 60.48ZM611.044 53.52C611.204 53.5733 611.444 53.6 611.764 53.6C612.777 53.6 613.87 53.1733 615.044 52.32C616.217 51.4667 617.39 50.3733 618.564 49.04C619.737 47.6533 620.777 46.2667 621.684 44.88C624.03 41.1467 625.764 38.3467 626.884 36.48C628.004 34.6133 628.644 33.5467 628.804 33.28C628.537 32.3733 628.057 31.7067 627.364 31.28C626.724 30.8533 625.95 30.64 625.044 30.64C623.87 30.64 622.617 30.96 621.284 31.6C620.004 32.24 618.91 33.0133 618.004 33.92C616.617 35.3067 615.284 37.0933 614.004 39.28C612.777 41.4667 611.764 43.6267 610.964 45.76C610.217 47.8933 609.844 49.68 609.844 51.12C609.844 52.4533 610.244 53.2533 611.044 53.52ZM644.056 60.56C642.67 60.56 641.55 59.8133 640.696 58.32C639.843 56.8267 639.523 54.8533 639.736 52.4C639.843 50.8533 640.19 48.9067 640.776 46.56C641.416 44.16 642.216 41.76 643.176 39.36C644.136 36.9067 645.15 34.8267 646.216 33.12C647.603 30.9333 649.15 29.52 650.856 28.88C652.616 28.24 654.803 27.92 657.416 27.92C657.63 27.92 657.736 28.0267 657.736 28.24C657.736 28.4533 657.576 28.72 657.256 29.04C656.51 29.68 655.63 30.8533 654.616 32.56C653.603 34.2667 652.616 36.1333 651.656 38.16C650.75 40.1867 649.95 42.0533 649.256 43.76C648.723 45.1467 648.216 46.5867 647.736 48.08C647.31 49.5733 647.096 50.9067 647.096 52.08C647.096 53.04 647.283 53.8133 647.656 54.4C648.083 54.9867 648.803 55.28 649.816 55.28C650.883 55.2267 652.056 54.4533 653.336 52.96C654.616 51.4667 655.843 49.6267 657.016 47.44C658.19 45.2533 659.15 43.12 659.896 41.04C659.79 40.4533 659.683 39.84 659.576 39.2C659.523 38.56 659.496 37.8933 659.496 37.2C659.496 36.24 659.576 35.2533 659.736 34.24C659.95 33.1733 660.243 32.1333 660.616 31.12C661.31 29.36 662.27 28.32 663.496 28C663.71 27.9467 663.896 27.92 664.056 27.92C664.27 27.8667 664.483 27.84 664.696 27.84C665.71 27.84 666.376 28.2133 666.696 28.96C667.07 29.6533 667.256 30.48 667.256 31.44C667.256 32.4 667.15 33.36 666.936 34.32C666.723 35.2267 666.536 35.92 666.376 36.4C666.003 37.4133 665.576 38.4 665.096 39.36C664.616 40.2667 664.136 41.1733 663.656 42.08C663.763 43.7333 664.19 45.0133 664.936 45.92C665.736 46.8267 666.67 47.28 667.736 47.28C669.07 47.28 670.403 46.6933 671.736 45.52C672.483 44.88 673.15 44.08 673.736 43.12C674.376 42.1067 674.936 41.1733 675.416 40.32C675.683 39.84 675.87 39.7333 675.976 40C676.083 40.2667 676.136 40.6933 676.136 41.28C676.136 41.76 676.083 42.2933 675.976 42.88C675.923 43.4133 675.79 43.84 675.576 44.16C674.83 45.4933 673.976 46.6133 673.016 47.52C672.056 48.3733 671.043 49.0133 669.976 49.44C669.123 49.76 668.243 49.92 667.336 49.92C666.11 49.92 664.963 49.5733 663.896 48.88C662.883 48.1333 662.083 47.0133 661.496 45.52C660.376 47.1733 659.336 48.6933 658.376 50.08C657.47 51.4133 656.776 52.3733 656.296 52.96C654.696 54.9867 652.856 56.7733 650.776 58.32C648.75 59.8133 646.51 60.56 644.056 60.56ZM688.235 58.88C685.782 60.16 683.195 60.8 680.475 60.8C678.182 60.8 676.048 60.24 674.075 59.12C672.102 58 670.768 56.2133 670.075 53.76C669.755 52.64 669.595 51.4667 669.595 50.24C669.595 48.2133 669.942 46.1333 670.635 44C671.382 41.8133 672.342 39.8133 673.515 38C675.328 35.1733 677.622 32.8267 680.395 30.96C683.168 29.0933 686.235 28.16 689.595 28.16C692.102 28.16 694.048 28.8 695.435 30.08C696.822 31.36 697.515 32.8533 697.515 34.56C697.515 36.5867 696.822 38.3733 695.435 39.92C694.102 41.4133 692.342 42.56 690.155 43.36C689.088 43.7333 687.942 44.0267 686.715 44.24C685.542 44.4 684.422 44.48 683.355 44.48C681.168 44.48 679.488 44.1867 678.315 43.6C677.302 46.2133 676.795 48.6133 676.795 50.8C676.795 52.7733 677.248 54.4 678.155 55.68C679.062 56.9067 680.502 57.52 682.475 57.52C684.128 57.52 685.755 57.0667 687.355 56.16C689.008 55.2533 690.528 54.1333 691.915 52.8C693.355 51.4667 694.555 50.1867 695.515 48.96C696.262 48.0533 696.902 47.2 697.435 46.4C697.968 45.6 698.528 44.6933 699.115 43.68C699.702 42.6133 700.395 41.3067 701.195 39.76C701.408 39.3867 701.595 39.2 701.755 39.2C702.075 39.2 702.235 39.6267 702.235 40.48C702.235 40.96 702.155 41.4933 701.995 42.08C701.888 42.6133 701.675 43.1733 701.355 43.76C700.608 45.0933 699.702 46.56 698.635 48.16C697.622 49.7067 696.582 51.2 695.515 52.64C694.555 53.92 693.462 55.0933 692.235 56.16C691.008 57.2267 689.675 58.1333 688.235 58.88ZM680.955 41.84C681.222 42 681.515 42.1067 681.835 42.16C682.155 42.2133 682.475 42.24 682.795 42.24C683.862 42.24 684.928 42 685.995 41.52C687.062 40.9867 687.968 40.4533 688.715 39.92C689.942 39.0667 690.982 38.0533 691.835 36.88C692.688 35.7067 693.168 34.3733 693.275 32.88C693.328 32.24 693.168 31.7067 692.795 31.28C692.475 30.8 691.888 30.56 691.035 30.56C690.608 30.56 690.075 30.64 689.435 30.8C688.582 31.0133 687.728 31.4133 686.875 32C686.022 32.5867 685.195 33.28 684.395 34.08C684.128 34.3467 683.648 34.88 682.955 35.68C682.315 36.4267 681.702 37.28 681.115 38.24C680.528 39.1467 680.235 39.9467 680.235 40.64C680.235 41.2267 680.475 41.6267 680.955 41.84Z" fill="#3198BC"/>
</svg>
