<svg width="369" height="193" viewBox="0 0 369 193" fill="none" xmlns="http://www.w3.org/2000/svg">
<g clip-path="url(#clip0_418_252)">
<path d="M191.217 124.672C157.642 124.672 130.423 98.7032 130.423 66.6731C130.423 34.643 157.642 8.66816 191.217 8.66816C218.26 8.66816 242.588 27.5509 247.994 56.8733C245.915 19.8781 216.328 0 186.105 0C150.146 0 121 29.3224 121 65.5C121 101.678 150.146 131 186.105 131C211.369 131 235.397 121.935 246.375 85.23C236.528 109.635 213.855 124.672 191.222 124.672H191.217Z" fill="#64CCE8"/>
<path d="M193.207 75.91C193.207 75.91 196.605 71.1819 195.186 56.7962C194.803 52.8798 192.548 46.5579 190.545 43.1807C187.159 37.4869 178.378 30.8332 164.509 35.8457C164.509 35.8457 158.738 38.3519 158.862 33.5764C158.979 28.795 171.441 30.1874 173.602 28.1136C175.764 26.0399 172.943 24.695 170.145 25.1571C167.348 25.6193 165.41 22.8108 165.881 21.7562C166.311 20.7964 168.608 16.246 180.628 23.8773C182.607 25.1334 184.444 26.6146 186.14 28.2618C187.283 29.3757 188.714 30.5429 189.332 30.1518C190.451 29.4527 184.968 26.431 186.34 24.8135C187.713 23.196 193.407 27.3908 197.071 45.7877C197.206 46.4513 197.377 47.1089 197.583 47.7548C198.184 49.627 199.338 52.5184 199.626 48.2584C200.021 42.4164 196.711 38.2216 197.212 36.6041C197.712 34.9866 206.57 40.3842 204.196 54.0885C201.605 69.0667 193.207 75.9159 193.207 75.9159V75.91Z" fill="#3DA5C9"/>
<path d="M182.677 69.7481C184.668 69.8666 186.8 70.5776 188.419 71.7448C191.711 74.1266 193.207 75.91 193.207 75.91C193.207 75.91 184.874 54.4915 173.296 54.4915C166.264 54.4915 163.832 64.0128 176.229 63.8884C180.363 63.8469 181.305 64.2735 182.46 65.0615C183.331 65.654 184.562 66.8805 182.33 66.9338C178.696 67.0227 177.265 69.4223 182.672 69.7422L182.677 69.7481Z" fill="#3DA5C9"/>
<path opacity="0.5" d="M135.14 78.8665L139.516 87.6769C139.516 87.6769 144.922 87.3629 158.856 97.7137C170.999 106.737 181.57 104.438 181.57 104.438C181.57 104.438 172.595 111.963 154.551 97.9566C154.551 97.9566 145.952 91.137 141.159 91.5399C141.159 91.5399 157.89 120.762 185.969 120.24C214.049 119.719 239.637 96.9316 241.934 83.2095C241.934 83.2095 238.065 78.8606 219.066 92.559C205.404 102.412 188.537 101.666 172.053 95.32C154.898 88.7137 149.268 81.4853 135.146 78.8606L135.14 78.8665Z" fill="#83C9E2"/>
<path d="M133.85 74.2273C133.85 74.2273 144.403 73.5637 167.183 88.6367C167.183 88.6367 185.669 98.8276 203.154 94.0403C203.154 94.0403 184.768 92.6894 167.383 80.1108C149.998 67.5322 133.85 74.2273 133.85 74.2273Z" fill="#83C9E2"/>
<path d="M158.143 71.7449C158.143 71.7449 181.97 89.2115 203.154 91.0838C218.754 92.4643 222.282 84.2583 232.929 81.4143C239.543 79.6487 240.956 80.0101 241.934 80.4782C242.912 80.9463 240.968 73.1432 227.688 75.128C214.408 77.1129 214.585 80.8219 202.435 82.1194C190.068 83.4466 175.18 80.3242 158.149 71.7449H158.143Z" fill="#83C9E2"/>
</g>
<path d="M114.618 154.24V156.88H106.458L107.098 156.2V185H104.058V156.2L104.698 156.88H96.6178V154.24H114.618ZM117.864 185V162.24H120.784V185H117.864ZM119.344 158C118.73 158 118.224 157.787 117.824 157.36C117.424 156.933 117.224 156.36 117.224 155.64C117.224 154.947 117.424 154.387 117.824 153.96C118.25 153.533 118.757 153.32 119.344 153.32C119.957 153.32 120.464 153.533 120.864 153.96C121.264 154.387 121.464 154.947 121.464 155.64C121.464 156.333 121.264 156.907 120.864 157.36C120.464 157.787 119.957 158 119.344 158ZM155.824 185H152.904V169.76C152.904 167.92 152.517 166.533 151.744 165.6C150.997 164.667 150.037 164.2 148.864 164.2C147.93 164.2 147.05 164.493 146.224 165.08C145.424 165.667 144.77 166.56 144.264 167.76C143.757 168.933 143.504 170.4 143.504 172.16V185H140.504V169.76C140.504 167.92 140.13 166.533 139.384 165.6C138.637 164.667 137.624 164.2 136.344 164.2C135.384 164.2 134.477 164.493 133.624 165.08C132.797 165.667 132.117 166.56 131.584 167.76C131.05 168.933 130.784 170.4 130.784 172.16V185H127.824V162.24H130.624L130.744 168.36H129.744C130.117 166.893 130.664 165.68 131.384 164.72C132.13 163.76 132.984 163.04 133.944 162.56C134.904 162.053 135.904 161.8 136.944 161.8C138.17 161.8 139.237 162.08 140.144 162.64C141.077 163.173 141.824 163.947 142.384 164.96C142.97 165.973 143.317 167.187 143.424 168.6H142.384C142.784 167.053 143.33 165.787 144.024 164.8C144.744 163.787 145.57 163.04 146.504 162.56C147.464 162.053 148.45 161.8 149.464 161.8C150.744 161.8 151.864 162.093 152.824 162.68C153.784 163.267 154.517 164.12 155.024 165.24C155.557 166.36 155.824 167.747 155.824 169.4V185ZM170.904 185.44C168.957 185.44 167.25 184.987 165.784 184.08C164.317 183.147 163.17 181.8 162.344 180.04C161.544 178.253 161.144 176.08 161.144 173.52C161.144 171.147 161.517 169.093 162.264 167.36C163.01 165.6 164.064 164.24 165.424 163.28C166.784 162.293 168.357 161.8 170.144 161.8C172.117 161.8 173.704 162.267 174.904 163.2C176.13 164.133 177.01 165.44 177.544 167.12C178.077 168.773 178.344 170.707 178.344 172.92V174.04H162.784L162.824 171.72L175.344 171.64C175.344 170.707 175.25 169.8 175.064 168.92C174.904 168.04 174.61 167.253 174.184 166.56C173.784 165.84 173.25 165.28 172.584 164.88C171.944 164.453 171.117 164.24 170.104 164.24C168.264 164.24 166.824 165.093 165.784 166.8C164.744 168.48 164.224 170.76 164.224 173.64C164.224 176.653 164.864 178.96 166.144 180.56C167.45 182.133 169.157 182.92 171.264 182.92C172.224 182.92 173.157 182.8 174.064 182.56C174.997 182.293 175.97 181.907 176.984 181.4L177.864 183.52C176.69 184.16 175.504 184.64 174.304 184.96C173.13 185.28 171.997 185.44 170.904 185.44ZM187.377 185L180.377 154.28H183.537L188.017 174.6C188.177 175.293 188.324 176.12 188.457 177.08C188.617 178.04 188.777 179 188.937 179.96C189.097 180.893 189.231 181.733 189.337 182.48H188.817C188.977 181.733 189.151 180.893 189.337 179.96C189.524 179 189.711 178.04 189.897 177.08C190.111 176.093 190.324 175.213 190.537 174.44L195.857 155.4L198.657 155.28L203.777 174.52C203.964 175.24 204.151 176.08 204.337 177.04C204.524 178 204.711 178.96 204.897 179.92C205.084 180.88 205.231 181.72 205.337 182.44H204.777C204.937 181.693 205.097 180.84 205.257 179.88C205.417 178.92 205.577 177.96 205.737 177C205.924 176.013 206.097 175.16 206.257 174.44L210.897 154.28H213.897L206.417 185H203.537L198.457 165.8C198.244 165.08 198.044 164.293 197.857 163.44C197.671 162.587 197.497 161.733 197.337 160.88C197.177 160.027 197.031 159.253 196.897 158.56H197.457C197.324 159.253 197.164 160.027 196.977 160.88C196.817 161.733 196.631 162.6 196.417 163.48C196.231 164.333 196.031 165.12 195.817 165.84L190.377 185H187.377ZM227.512 180.4L228.392 180.6C227.992 181.667 227.419 182.56 226.672 183.28C225.952 184 225.139 184.547 224.232 184.92C223.352 185.267 222.472 185.44 221.592 185.44C220.312 185.44 219.166 185.173 218.152 184.64C217.166 184.107 216.379 183.333 215.792 182.32C215.206 181.28 214.912 180.027 214.912 178.56C214.912 176.587 215.752 174.973 217.432 173.72C219.112 172.467 221.432 171.84 224.392 171.84C225.112 171.84 225.806 171.867 226.472 171.92C227.139 171.947 227.779 172.027 228.392 172.16V174.28C227.726 174.173 227.086 174.107 226.472 174.08C225.886 174.027 225.206 174 224.432 174C222.832 174 221.566 174.2 220.632 174.6C219.699 175 219.019 175.547 218.592 176.24C218.192 176.933 217.992 177.707 217.992 178.56C217.992 180 218.366 181.093 219.112 181.84C219.859 182.587 220.899 182.96 222.232 182.96C222.952 182.96 223.699 182.773 224.472 182.4C225.246 182 225.899 181.387 226.432 180.56C226.966 179.733 227.232 178.667 227.232 177.36V168.96C227.232 167.36 226.819 166.2 225.992 165.48C225.192 164.733 224.152 164.36 222.872 164.36C221.966 164.36 221.006 164.533 219.992 164.88C218.979 165.227 217.966 165.707 216.952 166.32L215.832 164.08C216.979 163.333 218.219 162.773 219.552 162.4C220.886 162.027 222.139 161.84 223.312 161.84C224.619 161.84 225.792 162.093 226.832 162.6C227.872 163.107 228.699 163.88 229.312 164.92C229.926 165.933 230.232 167.227 230.232 168.8V179.92C230.232 181.013 230.366 181.813 230.632 182.32C230.926 182.827 231.499 183.08 232.352 183.08C232.459 183.08 232.566 183.08 232.672 183.08C232.779 183.08 232.899 183.067 233.032 183.04L233.152 185.28C232.886 185.333 232.619 185.373 232.352 185.4C232.086 185.427 231.832 185.44 231.592 185.44C230.152 185.44 229.112 185.04 228.472 184.24C227.832 183.413 227.512 182.133 227.512 180.4ZM249.765 162.24H252.725L244.365 185H241.765L233.605 162.24H236.685L243.605 181.88H242.725L249.765 162.24ZM264.029 185.44C262.082 185.44 260.375 184.987 258.909 184.08C257.442 183.147 256.295 181.8 255.469 180.04C254.669 178.253 254.269 176.08 254.269 173.52C254.269 171.147 254.642 169.093 255.389 167.36C256.135 165.6 257.189 164.24 258.549 163.28C259.909 162.293 261.482 161.8 263.269 161.8C265.242 161.8 266.829 162.267 268.029 163.2C269.255 164.133 270.135 165.44 270.669 167.12C271.202 168.773 271.469 170.707 271.469 172.92V174.04H255.909L255.949 171.72L268.469 171.64C268.469 170.707 268.375 169.8 268.189 168.92C268.029 168.04 267.735 167.253 267.309 166.56C266.909 165.84 266.375 165.28 265.709 164.88C265.069 164.453 264.242 164.24 263.229 164.24C261.389 164.24 259.949 165.093 258.909 166.8C257.869 168.48 257.349 170.76 257.349 173.64C257.349 176.653 257.989 178.96 259.269 180.56C260.575 182.133 262.282 182.92 264.389 182.92C265.349 182.92 266.282 182.8 267.189 182.56C268.122 182.293 269.095 181.907 270.109 181.4L270.989 183.52C269.815 184.16 268.629 184.64 267.429 184.96C266.255 185.28 265.122 185.44 264.029 185.44Z" fill="#3198BC"/>
<defs>
<clipPath id="clip0_418_252">
<rect width="127" height="131" fill="white" transform="translate(121)"/>
</clipPath>
</defs>
</svg>
